{
	"asset":{
		"generator":"Khronos glTF Blender I/O v4.2.70",
		"version":"2.0"
	},
	"scene":0,
	"scenes":[
		{
			"name":"Scene",
			"nodes":[
				0
			]
		}
	],
	"nodes":[
		{
			"mesh":0,
			"name":"Cube",
			"translation":[
				0,
				3.7921595573425293,
				0
			]
		}
	],
	"meshes":[
		{
			"name":"Cube.001",
			"primitives":[
				{
					"attributes":{
						"POSITION":0,
						"NORMAL":1
					},
					"indices":2
				}
			]
		}
	],
	"accessors":[
		{
			"bufferView":0,
			"componentType":5126,
			"count":702,
			"max":[
				4.4350361824035645,
				8.80683708190918,
				2.6223652362823486
			],
			"min":[
				-4.4350361824035645,
				-3.792330503463745,
				-3.0007259845733643
			],
			"type":"VEC3"
		},
		{
			"bufferView":1,
			"componentType":5126,
			"count":702,
			"type":"VEC3"
		},
		{
			"bufferView":2,
			"componentType":5123,
			"count":4200,
			"type":"SCALAR"
		}
	],
	"bufferViews":[
		{
			"buffer":0,
			"byteLength":8424,
			"byteOffset":0,
			"target":34962
		},
		{
			"buffer":0,
			"byteLength":8424,
			"byteOffset":8424,
			"target":34962
		},
		{
			"buffer":0,
			"byteLength":8400,
			"byteOffset":16848,
			"target":34963
		}
	],
	"buffers":[
		{
			"byteLength":25248,
			"uri":"1.bin"
		}
	]
}
