{
	"asset":{
		"generator":"Khronos glTF Blender I/O v4.2.70",
		"version":"2.0"
	},
	"scene":0,
	"scenes":[
		{
			"name":"Scene",
			"nodes":[
				0,
				1,
				2,
				3,
				4,
				5,
				6,
				7,
				8,
				9,
				10,
				11,
				12
			]
		}
	],
	"nodes":[
		{
			"mesh":0,
			"name":"GEO_Female_base"
		},
		{
			"mesh":1,
			"name":"GEO_eye_pupil",
			"rotation":[
				-0.03567742183804512,
				-0.007668427191674709,
				-0.013050481677055359,
				0.999248743057251
			],
			"scale":[
				1.03053879737854,
				1.0305386781692505,
				1.0305386781692505
			],
			"translation":[
				0.050020188093185425,
				1.7169557809829712,
				0.08167517930269241
			]
		},
		{
			"mesh":2,
			"name":"GEO_eye_white",
			"rotation":[
				0.06511813402175903,
				0.21636608242988586,
				0.014464997686445713,
				0.9740309715270996
			],
			"scale":[
				0.8634124994277954,
				0.8634124398231506,
				0.8634124994277954
			],
			"translation":[
				0.05001454055309296,
				1.716804027557373,
				0.07585470378398895
			]
		},
		{
			"mesh":3,
			"name":"GEO_eye_eyelash"
		},
		{
			"mesh":4,
			"name":"GEO_Female_eyebrows",
			"translation":[
				0,
				-0.0017883526161313057,
				0
			]
		},
		{
			"mesh":5,
			"name":"GEO_hair_back",
			"translation":[
				0,
				1.8058439493179321,
				0.11153031140565872
			]
		},
		{
			"mesh":6,
			"name":"GEO_hair_back.02",
			"translation":[
				0,
				1.8058439493179321,
				0.11153031140565872
			]
		},
		{
			"mesh":7,
			"name":"GEO_hair_bangs",
			"translation":[
				0,
				1.8058439493179321,
				0.11153031140565872
			]
		},
		{
			"mesh":8,
			"name":"GEO_hairband",
			"translation":[
				0,
				1.8058439493179321,
				0.11153031140565872
			]
		},
		{
			"name":"Plane"
		},
		{
			"name":"Empty",
			"rotation":[
				0,
				0.3826836049556732,
				0,
				0.9238795042037964
			]
		},
		{
			"mesh":9,
			"name":"GEO_Female_shirt.003",
			"translation":[
				0,
				0.005237787961959839,
				0
			]
		},
		{
			"mesh":10,
			"name":"GEO_Female_skirt"
		}
	],
	"materials":[
		{
			"doubleSided":true,
			"name":"BI_skin",
			"pbrMetallicRoughness":{
				"baseColorFactor":[
					1,
					0.8034771680831909,
					0.6999999284744263,
					1
				],
				"metallicFactor":0,
				"roughnessFactor":0.5
			}
		},
		{
			"doubleSided":true,
			"name":"Material.005",
			"pbrMetallicRoughness":{
				"baseColorFactor":[
					0.2727435231208801,
					0.31616637110710144,
					0.11565500497817993,
					1
				],
				"metallicFactor":0,
				"roughnessFactor":0.5
			}
		},
		{
			"doubleSided":true,
			"name":"Material.003",
			"pbrMetallicRoughness":{
				"baseColorFactor":[
					0.9735172390937805,
					0.9801378846168518,
					1,
					1
				],
				"metallicFactor":0,
				"roughnessFactor":0.5
			}
		},
		{
			"doubleSided":true,
			"name":"BI_Black",
			"pbrMetallicRoughness":{
				"baseColorFactor":[
					0,
					0,
					0,
					1
				],
				"metallicFactor":0,
				"roughnessFactor":0.5
			}
		},
		{
			"doubleSided":true,
			"name":"BL_hair.001"
		},
		{
			"doubleSided":true,
			"name":"shirt.001",
			"pbrMetallicRoughness":{
				"baseColorFactor":[
					0.6896108388900757,
					0.7408053874969482,
					0.25959062576293945,
					1
				],
				"metallicFactor":0,
				"roughnessFactor":0.5
			}
		},
		{
			"doubleSided":true,
			"name":"Material.001",
			"pbrMetallicRoughness":{
				"baseColorFactor":[
					0.01255220640450716,
					0.00871611014008522,
					0.1282387673854828,
					1
				],
				"metallicFactor":0,
				"roughnessFactor":0.5
			}
		},
		{
			"doubleSided":true,
			"name":"shirt.002",
			"pbrMetallicRoughness":{
				"baseColorFactor":[
					0.44308847188949585,
					1,
					0.36336883902549744,
					1
				],
				"metallicFactor":0,
				"roughnessFactor":0.5
			}
		},
		{
			"doubleSided":true,
			"name":"BI_base.005",
			"pbrMetallicRoughness":{
				"baseColorFactor":[
					0.9228977560997009,
					1,
					0.017602739855647087,
					1
				],
				"metallicFactor":0,
				"roughnessFactor":0.5
			}
		}
	],
	"meshes":[
		{
			"extras":{
				"targetNames":[
					"Smile"
				]
			},
			"name":"Cube.001",
			"primitives":[
				{
					"attributes":{
						"POSITION":0,
						"NORMAL":1,
						"TEXCOORD_0":2,
						"TEXCOORD_1":3,
						"TEXCOORD_2":4,
						"COLOR_0":5,
						"COLOR_1":6
					},
					"indices":7,
					"material":0,
					"targets":[
						{
							"POSITION":8,
							"NORMAL":9
						}
					]
				}
			],
			"weights":[
				0.30000001192092896
			]
		},
		{
			"name":"Circle",
			"primitives":[
				{
					"attributes":{
						"POSITION":10,
						"NORMAL":11,
						"TEXCOORD_0":12
					},
					"indices":13,
					"material":1
				}
			]
		},
		{
			"name":"Plane",
			"primitives":[
				{
					"attributes":{
						"POSITION":14,
						"NORMAL":15
					},
					"indices":16,
					"material":2
				}
			]
		},
		{
			"name":"Cube.005",
			"primitives":[
				{
					"attributes":{
						"POSITION":17,
						"NORMAL":18,
						"TEXCOORD_0":19,
						"COLOR_0":20,
						"COLOR_1":21
					},
					"indices":22,
					"material":3
				}
			]
		},
		{
			"name":"Cube.000",
			"primitives":[
				{
					"attributes":{
						"POSITION":23,
						"NORMAL":24,
						"TEXCOORD_0":25,
						"COLOR_0":26,
						"COLOR_1":27
					},
					"indices":28,
					"material":4
				}
			]
		},
		{
			"name":"Plane.007",
			"primitives":[
				{
					"attributes":{
						"POSITION":29,
						"NORMAL":30,
						"TEXCOORD_0":31
					},
					"indices":32,
					"material":5
				}
			]
		},
		{
			"name":"Plane.009",
			"primitives":[
				{
					"attributes":{
						"POSITION":33,
						"NORMAL":34,
						"TEXCOORD_0":35
					},
					"indices":36,
					"material":5
				}
			]
		},
		{
			"name":"Plane.001",
			"primitives":[
				{
					"attributes":{
						"POSITION":37,
						"NORMAL":38,
						"TEXCOORD_0":39
					},
					"indices":40,
					"material":5
				}
			]
		},
		{
			"name":"Plane.012",
			"primitives":[
				{
					"attributes":{
						"POSITION":41,
						"NORMAL":42,
						"TEXCOORD_0":43
					},
					"indices":44,
					"material":6
				}
			]
		},
		{
			"name":"Cube.008",
			"primitives":[
				{
					"attributes":{
						"POSITION":45,
						"NORMAL":46,
						"TEXCOORD_0":47,
						"COLOR_0":48,
						"COLOR_1":49
					},
					"indices":50,
					"material":7
				}
			]
		},
		{
			"name":"Cube.003",
			"primitives":[
				{
					"attributes":{
						"POSITION":51,
						"NORMAL":52,
						"TEXCOORD_0":53,
						"TEXCOORD_1":54,
						"TEXCOORD_2":55,
						"TEXCOORD_3":56,
						"COLOR_0":57,
						"COLOR_1":58
					},
					"indices":59,
					"material":8
				}
			]
		}
	],
	"accessors":[
		{
			"bufferView":0,
			"componentType":5126,
			"count":2887,
			"max":[
				0.8238539099693298,
				1.869992971420288,
				0.20138400793075562
			],
			"min":[
				0,
				-0.010044693946838379,
				-0.13045084476470947
			],
			"type":"VEC3"
		},
		{
			"bufferView":1,
			"componentType":5126,
			"count":2887,
			"type":"VEC3"
		},
		{
			"bufferView":2,
			"componentType":5126,
			"count":2887,
			"type":"VEC2"
		},
		{
			"bufferView":3,
			"componentType":5126,
			"count":2887,
			"type":"VEC2"
		},
		{
			"bufferView":4,
			"componentType":5126,
			"count":2887,
			"type":"VEC2"
		},
		{
			"bufferView":5,
			"componentType":5121,
			"count":2887,
			"normalized":true,
			"type":"VEC4"
		},
		{
			"bufferView":6,
			"componentType":5126,
			"count":2887,
			"type":"VEC3"
		},
		{
			"bufferView":7,
			"componentType":5123,
			"count":11091,
			"type":"SCALAR"
		},
		{
			"componentType":5126,
			"count":2887,
			"max":[
				0.004340263083577156,
				0.005157470703125,
				0.0011015459895133972
			],
			"min":[
				-0.0021272804588079453,
				-0.0011239051818847656,
				-0.003273703157901764
			],
			"sparse":{
				"count":986,
				"indices":{
					"bufferView":8,
					"componentType":5123
				},
				"values":{
					"bufferView":9
				}
			},
			"type":"VEC3"
		},
		{
			"bufferView":10,
			"componentType":5126,
			"count":2887,
			"type":"VEC3"
		},
		{
			"bufferView":11,
			"componentType":5126,
			"count":161,
			"max":[
				0.012974468991160393,
				0.014728762209415436,
				0.005553151946514845
			],
			"min":[
				-0.014894826337695122,
				-0.014725029468536377,
				-0.00663032429292798
			],
			"type":"VEC3"
		},
		{
			"bufferView":12,
			"componentType":5126,
			"count":161,
			"type":"VEC3"
		},
		{
			"bufferView":13,
			"componentType":5126,
			"count":161,
			"type":"VEC2"
		},
		{
			"bufferView":14,
			"componentType":5123,
			"count":912,
			"type":"SCALAR"
		},
		{
			"bufferView":15,
			"componentType":5126,
			"count":16,
			"max":[
				0.032129593193531036,
				0.03176548704504967,
				0.004108507186174393
			],
			"min":[
				-0.032129593193531036,
				-0.031798068434000015,
				-0.00021853996440768242
			],
			"type":"VEC3"
		},
		{
			"bufferView":16,
			"componentType":5126,
			"count":16,
			"type":"VEC3"
		},
		{
			"bufferView":17,
			"componentType":5123,
			"count":54,
			"type":"SCALAR"
		},
		{
			"bufferView":18,
			"componentType":5126,
			"count":107,
			"max":[
				0.08568721264600754,
				1.737573504447937,
				0.09580522030591965
			],
			"min":[
				0.021878039464354515,
				1.7001230716705322,
				0.05577496811747551
			],
			"type":"VEC3"
		},
		{
			"bufferView":19,
			"componentType":5126,
			"count":107,
			"type":"VEC3"
		},
		{
			"bufferView":20,
			"componentType":5126,
			"count":107,
			"type":"VEC2"
		},
		{
			"bufferView":21,
			"componentType":5121,
			"count":107,
			"normalized":true,
			"type":"VEC4"
		},
		{
			"bufferView":22,
			"componentType":5126,
			"count":107,
			"type":"VEC3"
		},
		{
			"bufferView":23,
			"componentType":5123,
			"count":474,
			"type":"SCALAR"
		},
		{
			"bufferView":24,
			"componentType":5126,
			"count":27,
			"max":[
				0.08125787228345871,
				1.7557053565979004,
				0.10473495721817017
			],
			"min":[
				0.020814314484596252,
				1.7414637804031372,
				0.0633692741394043
			],
			"type":"VEC3"
		},
		{
			"bufferView":25,
			"componentType":5126,
			"count":27,
			"type":"VEC3"
		},
		{
			"bufferView":26,
			"componentType":5126,
			"count":27,
			"type":"VEC2"
		},
		{
			"bufferView":27,
			"componentType":5121,
			"count":27,
			"normalized":true,
			"type":"VEC4"
		},
		{
			"bufferView":28,
			"componentType":5126,
			"count":27,
			"type":"VEC3"
		},
		{
			"bufferView":29,
			"componentType":5123,
			"count":60,
			"type":"SCALAR"
		},
		{
			"bufferView":30,
			"componentType":5126,
			"count":248,
			"max":[
				0.0958959087729454,
				0.08262662589550018,
				-0.01763317920267582
			],
			"min":[
				-0.09714154154062271,
				-0.15200163424015045,
				-0.2259455919265747
			],
			"type":"VEC3"
		},
		{
			"bufferView":31,
			"componentType":5126,
			"count":248,
			"type":"VEC3"
		},
		{
			"bufferView":32,
			"componentType":5126,
			"count":248,
			"type":"VEC2"
		},
		{
			"bufferView":33,
			"componentType":5123,
			"count":1260,
			"type":"SCALAR"
		},
		{
			"bufferView":34,
			"componentType":5126,
			"count":265,
			"max":[
				0.10122202336788177,
				0.1351182907819748,
				-0.16442489624023438
			],
			"min":[
				0,
				-0.12866836786270142,
				-0.3534948229789734
			],
			"type":"VEC3"
		},
		{
			"bufferView":35,
			"componentType":5126,
			"count":265,
			"type":"VEC3"
		},
		{
			"bufferView":36,
			"componentType":5126,
			"count":265,
			"type":"VEC2"
		},
		{
			"bufferView":37,
			"componentType":5123,
			"count":948,
			"type":"SCALAR"
		},
		{
			"bufferView":38,
			"componentType":5126,
			"count":614,
			"max":[
				0.11341620981693268,
				0.0884915441274643,
				0.03366319090127945
			],
			"min":[
				-0.11962373554706573,
				-0.12479034066200256,
				-0.11325260996818542
			],
			"type":"VEC3"
		},
		{
			"bufferView":39,
			"componentType":5126,
			"count":614,
			"type":"VEC3"
		},
		{
			"bufferView":40,
			"componentType":5126,
			"count":614,
			"type":"VEC2"
		},
		{
			"bufferView":41,
			"componentType":5123,
			"count":2322,
			"type":"SCALAR"
		},
		{
			"bufferView":42,
			"componentType":5126,
			"count":16,
			"max":[
				0.01986631378531456,
				0.07332427054643631,
				-0.169881209731102
			],
			"min":[
				0,
				0.04255947843194008,
				-0.2036888152360916
			],
			"type":"VEC3"
		},
		{
			"bufferView":43,
			"componentType":5126,
			"count":16,
			"type":"VEC3"
		},
		{
			"bufferView":44,
			"componentType":5126,
			"count":16,
			"type":"VEC2"
		},
		{
			"bufferView":45,
			"componentType":5123,
			"count":42,
			"type":"SCALAR"
		},
		{
			"bufferView":46,
			"componentType":5126,
			"count":542,
			"max":[
				0.31336545944213867,
				1.5881421566009521,
				0.11979914456605911
			],
			"min":[
				-0.31336545944213867,
				1.114166021347046,
				-0.12093660980463028
			],
			"type":"VEC3"
		},
		{
			"bufferView":47,
			"componentType":5126,
			"count":542,
			"type":"VEC3"
		},
		{
			"bufferView":48,
			"componentType":5126,
			"count":542,
			"type":"VEC2"
		},
		{
			"bufferView":49,
			"componentType":5121,
			"count":542,
			"normalized":true,
			"type":"VEC4"
		},
		{
			"bufferView":50,
			"componentType":5126,
			"count":542,
			"type":"VEC3"
		},
		{
			"bufferView":51,
			"componentType":5123,
			"count":2412,
			"type":"SCALAR"
		},
		{
			"bufferView":52,
			"componentType":5126,
			"count":140,
			"max":[
				0.22156471014022827,
				1.1629536151885986,
				0.1389356404542923
			],
			"min":[
				-0.22395560145378113,
				0.5184502601623535,
				-0.21893616020679474
			],
			"type":"VEC3"
		},
		{
			"bufferView":53,
			"componentType":5126,
			"count":140,
			"type":"VEC3"
		},
		{
			"bufferView":54,
			"componentType":5126,
			"count":140,
			"type":"VEC2"
		},
		{
			"bufferView":55,
			"componentType":5126,
			"count":140,
			"type":"VEC2"
		},
		{
			"bufferView":56,
			"componentType":5126,
			"count":140,
			"type":"VEC2"
		},
		{
			"bufferView":57,
			"componentType":5126,
			"count":140,
			"type":"VEC2"
		},
		{
			"bufferView":58,
			"componentType":5121,
			"count":140,
			"normalized":true,
			"type":"VEC4"
		},
		{
			"bufferView":59,
			"componentType":5126,
			"count":140,
			"type":"VEC3"
		},
		{
			"bufferView":60,
			"componentType":5123,
			"count":720,
			"type":"SCALAR"
		}
	],
	"bufferViews":[
		{
			"buffer":0,
			"byteLength":34644,
			"byteOffset":0,
			"target":34962
		},
		{
			"buffer":0,
			"byteLength":34644,
			"byteOffset":34644,
			"target":34962
		},
		{
			"buffer":0,
			"byteLength":23096,
			"byteOffset":69288,
			"target":34962
		},
		{
			"buffer":0,
			"byteLength":23096,
			"byteOffset":92384,
			"target":34962
		},
		{
			"buffer":0,
			"byteLength":23096,
			"byteOffset":115480,
			"target":34962
		},
		{
			"buffer":0,
			"byteLength":11548,
			"byteOffset":138576,
			"target":34962
		},
		{
			"buffer":0,
			"byteLength":34644,
			"byteOffset":150124,
			"target":34962
		},
		{
			"buffer":0,
			"byteLength":22182,
			"byteOffset":184768,
			"target":34963
		},
		{
			"buffer":0,
			"byteLength":1972,
			"byteOffset":206952
		},
		{
			"buffer":0,
			"byteLength":11832,
			"byteOffset":208924
		},
		{
			"buffer":0,
			"byteLength":34644,
			"byteOffset":220756,
			"target":34962
		},
		{
			"buffer":0,
			"byteLength":1932,
			"byteOffset":255400,
			"target":34962
		},
		{
			"buffer":0,
			"byteLength":1932,
			"byteOffset":257332,
			"target":34962
		},
		{
			"buffer":0,
			"byteLength":1288,
			"byteOffset":259264,
			"target":34962
		},
		{
			"buffer":0,
			"byteLength":1824,
			"byteOffset":260552,
			"target":34963
		},
		{
			"buffer":0,
			"byteLength":192,
			"byteOffset":262376,
			"target":34962
		},
		{
			"buffer":0,
			"byteLength":192,
			"byteOffset":262568,
			"target":34962
		},
		{
			"buffer":0,
			"byteLength":108,
			"byteOffset":262760,
			"target":34963
		},
		{
			"buffer":0,
			"byteLength":1284,
			"byteOffset":262868,
			"target":34962
		},
		{
			"buffer":0,
			"byteLength":1284,
			"byteOffset":264152,
			"target":34962
		},
		{
			"buffer":0,
			"byteLength":856,
			"byteOffset":265436,
			"target":34962
		},
		{
			"buffer":0,
			"byteLength":428,
			"byteOffset":266292,
			"target":34962
		},
		{
			"buffer":0,
			"byteLength":1284,
			"byteOffset":266720,
			"target":34962
		},
		{
			"buffer":0,
			"byteLength":948,
			"byteOffset":268004,
			"target":34963
		},
		{
			"buffer":0,
			"byteLength":324,
			"byteOffset":268952,
			"target":34962
		},
		{
			"buffer":0,
			"byteLength":324,
			"byteOffset":269276,
			"target":34962
		},
		{
			"buffer":0,
			"byteLength":216,
			"byteOffset":269600,
			"target":34962
		},
		{
			"buffer":0,
			"byteLength":108,
			"byteOffset":269816,
			"target":34962
		},
		{
			"buffer":0,
			"byteLength":324,
			"byteOffset":269924,
			"target":34962
		},
		{
			"buffer":0,
			"byteLength":120,
			"byteOffset":270248,
			"target":34963
		},
		{
			"buffer":0,
			"byteLength":2976,
			"byteOffset":270368,
			"target":34962
		},
		{
			"buffer":0,
			"byteLength":2976,
			"byteOffset":273344,
			"target":34962
		},
		{
			"buffer":0,
			"byteLength":1984,
			"byteOffset":276320,
			"target":34962
		},
		{
			"buffer":0,
			"byteLength":2520,
			"byteOffset":278304,
			"target":34963
		},
		{
			"buffer":0,
			"byteLength":3180,
			"byteOffset":280824,
			"target":34962
		},
		{
			"buffer":0,
			"byteLength":3180,
			"byteOffset":284004,
			"target":34962
		},
		{
			"buffer":0,
			"byteLength":2120,
			"byteOffset":287184,
			"target":34962
		},
		{
			"buffer":0,
			"byteLength":1896,
			"byteOffset":289304,
			"target":34963
		},
		{
			"buffer":0,
			"byteLength":7368,
			"byteOffset":291200,
			"target":34962
		},
		{
			"buffer":0,
			"byteLength":7368,
			"byteOffset":298568,
			"target":34962
		},
		{
			"buffer":0,
			"byteLength":4912,
			"byteOffset":305936,
			"target":34962
		},
		{
			"buffer":0,
			"byteLength":4644,
			"byteOffset":310848,
			"target":34963
		},
		{
			"buffer":0,
			"byteLength":192,
			"byteOffset":315492,
			"target":34962
		},
		{
			"buffer":0,
			"byteLength":192,
			"byteOffset":315684,
			"target":34962
		},
		{
			"buffer":0,
			"byteLength":128,
			"byteOffset":315876,
			"target":34962
		},
		{
			"buffer":0,
			"byteLength":84,
			"byteOffset":316004,
			"target":34963
		},
		{
			"buffer":0,
			"byteLength":6504,
			"byteOffset":316088,
			"target":34962
		},
		{
			"buffer":0,
			"byteLength":6504,
			"byteOffset":322592,
			"target":34962
		},
		{
			"buffer":0,
			"byteLength":4336,
			"byteOffset":329096,
			"target":34962
		},
		{
			"buffer":0,
			"byteLength":2168,
			"byteOffset":333432,
			"target":34962
		},
		{
			"buffer":0,
			"byteLength":6504,
			"byteOffset":335600,
			"target":34962
		},
		{
			"buffer":0,
			"byteLength":4824,
			"byteOffset":342104,
			"target":34963
		},
		{
			"buffer":0,
			"byteLength":1680,
			"byteOffset":346928,
			"target":34962
		},
		{
			"buffer":0,
			"byteLength":1680,
			"byteOffset":348608,
			"target":34962
		},
		{
			"buffer":0,
			"byteLength":1120,
			"byteOffset":350288,
			"target":34962
		},
		{
			"buffer":0,
			"byteLength":1120,
			"byteOffset":351408,
			"target":34962
		},
		{
			"buffer":0,
			"byteLength":1120,
			"byteOffset":352528,
			"target":34962
		},
		{
			"buffer":0,
			"byteLength":1120,
			"byteOffset":353648,
			"target":34962
		},
		{
			"buffer":0,
			"byteLength":560,
			"byteOffset":354768,
			"target":34962
		},
		{
			"buffer":0,
			"byteLength":1680,
			"byteOffset":355328,
			"target":34962
		},
		{
			"buffer":0,
			"byteLength":1440,
			"byteOffset":357008,
			"target":34963
		}
	],
	"buffers":[
		{
			"byteLength":358448,
			"uri":"Random%20Anime%20Girl.bin"
		}
	]
}
