{"scene":0,"asset":{"generator":"ImageToStl.com","version":"2.0"},"scenes":[{"name":"Scene","nodes":[0]}],"nodes":[{"name":"Node0","children":[1,2,3,4,5,6]},{"name":"Node1","mesh":0},{"name":"Node2","mesh":1},{"name":"Node3","mesh":2},{"name":"Node4","mesh":3},{"name":"Node5","mesh":4},{"name":"Node6","mesh":5}],"materials":[{"name":"#A0A0A0FF","pbrMetallicRoughness":{"baseColorFactor":[0.627451,0.627451,0.627451,1.0],"metallicFactor":0.0,"roughnessFactor":1.0},"doubleSided":true}],"meshes":[{"name":"Mesh0","primitives":[{"indices":2,"material":0,"attributes":{"POSITION":0,"NORMAL":1}}]},{"name":"Mesh0","primitives":[{"indices":5,"material":0,"attributes":{"POSITION":3,"NORMAL":4}}]},{"name":"Mesh0","primitives":[{"indices":8,"material":0,"attributes":{"POSITION":6,"NORMAL":7}}]},{"name":"Mesh0","primitives":[{"indices":11,"material":0,"attributes":{"POSITION":9,"NORMAL":10}}]},{"name":"Mesh0","primitives":[{"indices":14,"material":0,"attributes":{"POSITION":12,"NORMAL":13}}]},{"name":"Mesh0","primitives":[{"indices":17,"material":0,"attributes":{"POSITION":15,"NORMAL":16}}]}],"accessors":[{"bufferView":0,"componentType":5126,"count":2922,"type":"VEC3","min":[-1.0871782,-32.295532,0.0],"max":[40.667953,25.498663,15.0]},{"bufferView":1,"componentType":5126,"count":2922,"type":"VEC3"},{"bufferView":2,"componentType":5123,"count":5844,"type":"SCALAR"},{"bufferView":3,"componentType":5126,"count":2100,"type":"VEC3","min":[92.97741,-30.153275,0.0],"max":[135.8585,22.84553,15.0]},{"bufferView":4,"componentType":5126,"count":2100,"type":"VEC3"},{"bufferView":5,"componentType":5123,"count":4200,"type":"SCALAR"},{"bufferView":6,"componentType":5126,"count":1938,"type":"VEC3","min":[51.85614,-33.138977,0.0],"max":[88.05531,24.465963,15.0]},{"bufferView":7,"componentType":5126,"count":1938,"type":"VEC3"},{"bufferView":8,"componentType":5123,"count":3864,"type":"SCALAR"},{"bufferView":9,"componentType":5126,"count":1884,"type":"VEC3","min":[-83.42199,-33.174843,0.0],"max":[-47.213512,24.461637,15.0]},{"bufferView":10,"componentType":5126,"count":1884,"type":"VEC3"},{"bufferView":11,"componentType":5123,"count":3756,"type":"SCALAR"},{"bufferView":12,"componentType":5126,"count":3654,"type":"VEC3","min":[-136.23276,-31.148228,0.0],"max":[-94.72804,22.449217,15.0]},{"bufferView":13,"componentType":5126,"count":3654,"type":"VEC3"},{"bufferView":14,"componentType":5123,"count":7296,"type":"SCALAR"},{"bufferView":15,"componentType":5126,"count":1968,"type":"VEC3","min":[-44.237244,-30.12158,0.0],"max":[-9.507935,23.420656,15.0]},{"bufferView":16,"componentType":5126,"count":1968,"type":"VEC3"},{"bufferView":17,"componentType":5123,"count":3924,"type":"SCALAR"}],"bufferViews":[{"target":34962,"buffer":0,"byteLength":35064,"byteOffset":0},{"target":34962,"buffer":0,"byteLength":35064,"byteOffset":35064},{"target":34963,"buffer":0,"byteLength":11688,"byteOffset":70128},{"target":34962,"buffer":0,"byteLength":25200,"byteOffset":81816},{"target":34962,"buffer":0,"byteLength":25200,"byteOffset":107016},{"target":34963,"buffer":0,"byteLength":8400,"byteOffset":132216},{"target":34962,"buffer":0,"byteLength":23256,"byteOffset":140616},{"target":34962,"buffer":0,"byteLength":23256,"byteOffset":163872},{"target":34963,"buffer":0,"byteLength":7728,"byteOffset":187128},{"target":34962,"buffer":0,"byteLength":22608,"byteOffset":194856},{"target":34962,"buffer":0,"byteLength":22608,"byteOffset":217464},{"target":34963,"buffer":0,"byteLength":7512,"byteOffset":240072},{"target":34962,"buffer":0,"byteLength":43848,"byteOffset":247584},{"target":34962,"buffer":0,"byteLength":43848,"byteOffset":291432},{"target":34963,"buffer":0,"byteLength":14592,"byteOffset":335280},{"target":34962,"buffer":0,"byteLength":23616,"byteOffset":349872},{"target":34962,"buffer":0,"byteLength":23616,"byteOffset":373488},{"target":34963,"buffer":0,"byteLength":7848,"byteOffset":397104}],"buffers":[{"byteLength":404952,"uri":"data:application/octet-stream;base64,"}]}